<svg width="24" height="24" viewBox="0 0 24 24" fill="none" xmlns="http://www.w3.org/2000/svg">
  <path fill-rule="evenodd" clip-rule="evenodd" d="M12 .5C5.648.5.5 5.648.5 12c0 5.086 3.292 9.402 7.868 10.925.575.106.787-.25.787-.557 0-.275-.01-1-.016-1.964-3.2.695-3.877-1.541-3.877-1.541-.523-1.33-1.277-1.684-1.277-1.684-1.043-.712.08-.698.08-.698 1.152.082 1.757 1.183 1.757 1.183 1.025 1.757 2.691 1.25 3.346.957.104-.744.402-1.25.732-1.538-2.553-.29-5.241-1.277-5.241-5.678 0-1.254.448-2.279 1.183-3.082-.118-.29-.513-1.46.112-3.042 0 0 .965-.31 3.162 1.177a10.97 10.97 0 0 1 2.879-.388c.976.005 1.964.132 2.88.388 2.196-1.486 3.16-1.177 3.16-1.177.627 1.583.233 2.753.114 3.042.737.803 1.18 1.829 1.18 3.082 0 4.412-2.693 5.384-5.257 5.668.413.356.78 1.06.78 2.137 0 1.543-.014 2.787-.014 3.166 0 .31.208.67.793.556C20.71 21.4 24 17.086 24 12 24 5.648 18.352.5 12 .5z" fill="currentColor"/>
</svg>
