<svg width="24" height="24" viewBox="0 0 24 24" fill="none" xmlns="http://www.w3.org/2000/svg">
  <path d="M23 4.56c-.8.36-1.66.6-2.56.71a4.48 4.48 0 0 0 1.96-2.47 9.02 9.02 0 0 1-2.86 1.09 4.5 4.5 0 0 0-7.66 4.1A12.8 12.8 0 0 1 2.9 3.16a4.48 4.48 0 0 0 1.39 6.01 4.44 4.44 0 0 1-2.04-.56v.06a4.5 4.5 0 0 0 3.6 4.41c-.5.14-1.03.2-1.57.08a4.52 4.52 0 0 0 4.2 3.13 9.03 9.03 0 0 1-5.6 1.93A9.3 9.3 0 0 1 1 19.54 12.8 12.8 0 0 0 7.07 21c8.32 0 12.86-6.9 12.86-12.87v-.59A9.22 9.22 0 0 0 23 4.56z" fill="currentColor"/>
</svg>
